<svg xmlns="http://www.w3.org/2000/svg" xmlns:svg="http://www.w3.org/2000/svg" id="Capa_1" width="125" height="125" x="0" y="0" version="1.1" viewBox="0 0 125 125" xml:space="preserve"><metadata id="metadata43"/><g id="g3" fill="#235643" fill-opacity="1" transform="translate(-19.52314,3.3491301)"><g id="g5" fill="#235643" fill-opacity="1" transform="matrix(0.85773309,0,0,0.85773309,11.87513,8.2092543)"><g id="g4851" transform="matrix(0.61320755,0,0,0.61320755,31.633059,22.971984)"><circle id="path4285" cx="81.783" cy="59.391" r="118.828" fill="#235643" fill-opacity="1" fill-rule="nonzero" stroke="none" stroke-dasharray="none" stroke-dashoffset="0" stroke-linecap="butt" stroke-linejoin="miter" stroke-miterlimit="4" stroke-opacity="1" stroke-width=".2" clip-rule="nonzero" color="#000" color-interpolation="sRGB" color-interpolation-filters="linearRGB" color-rendering="auto" display="inline" enable-background="accumulate" image-rendering="auto" opacity="1" overflow="visible" shape-rendering="auto" text-rendering="auto" visibility="visible" style="isolation:auto;mix-blend-mode:normal;solid-color:#000;solid-opacity:1"/><g id="g4294" fill="#082827" fill-opacity="1"><path id="path7" fill="#082827" fill-opacity="1" d="m 124.261,70.052 c -2.144,-1.866 -9.31,-3.312 -16.781,-4.372 l 0.024,-0.168 0,-52.439 C 107.504,5.866 101.884,0 94.954,0 88.03,0 82.398,5.86 82.398,13.073 l 0,28.202 c -1.988,-1.328 -4.354,-2.119 -6.89,-2.119 -3.766,0 -7.122,1.726 -9.454,4.42 -2.332,-2.694 -5.687,-4.42 -9.459,-4.42 -3.766,0 -7.121,1.726 -9.454,4.42 -2.332,-2.694 -5.684,-4.42 -9.456,-4.42 -6.774,0 -12.279,5.504 -12.635,12.382 l -0.067,0.344 0,0.356 0,12.793 0,7.401 0,26.491 0,7.746 c 0,26.609 20.944,45.182 50.942,45.182 29.995,0 50.941,-18.572 50.941,-45.182 l 0,-31.423 c 0.013,-2.021 -1.551,-4.302 -2.605,-5.194 z M 94.96,6.229 c 3.483,0 6.32,3.06 6.32,6.838 l 0,51.822 c -2.643,-0.305 -5.176,-0.56 -7.331,-0.767 -2.034,-0.21 -3.738,-0.162 -5.31,0 l 0,-51.055 C 88.64,9.289 91.477,6.229 94.96,6.229 Z M 75.515,45.392 c 3.565,0 6.476,3.068 6.476,6.853 l 0,12.75 0.256,1.221 c -2.238,1.511 -3.535,3.544 -4.244,5.496 -0.887,2.411 -0.947,4.932 -0.351,7.282 -0.566,0.167 -1.147,0.28 -1.757,0.28 -3.479,0 -6.281,-2.938 -6.424,-6.579 l 0.027,-0.269 0,-20.7 -0.188,-0.917 c 0.643,-3.074 3.111,-5.417 6.205,-5.417 z m -18.913,0 c 3.254,0 5.849,2.605 6.299,5.915 l -0.094,0.926 0,21.062 0.149,0.736 c -0.704,2.978 -3.13,5.231 -6.159,5.231 -3.444,0 -6.205,-2.874 -6.4,-6.46 l 0.009,-0.03 0,-0.362 0,-20.178 0,-0.505 -0.088,-0.438 c 0.447,-3.304 3.035,-5.897 6.284,-5.897 z m -18.904,0 c 3.254,0 5.849,2.605 6.296,5.915 l -0.094,0.925 0,21.586 c -0.627,3.081 -3.096,5.444 -6.196,5.444 -3.568,0 -6.473,-3.069 -6.473,-6.853 l 0,-7.396 0,-12.786 c 0,-3.767 2.899,-6.835 6.467,-6.835 z m 82.947,61.265 c 0,22.932 -18.378,38.952 -44.707,38.952 -26.327,0 -44.707,-16.021 -44.707,-38.952 l 0,-7.745 0,-15.296 c 1.903,1.175 4.104,1.894 6.473,1.894 3.821,0 7.212,-1.784 9.545,-4.546 2.332,2.749 5.724,4.546 9.554,4.546 3.821,0 7.212,-1.784 9.545,-4.546 2.332,2.749 5.724,4.546 9.554,4.546 1.638,0 3.242,-0.408 4.737,-1.047 1.449,1.619 3.294,2.977 5.541,3.781 l 19.899,5.504 c 1.656,0.438 3.373,-0.523 3.836,-2.186 0.45,-1.656 -0.518,-3.373 -2.18,-3.83 L 88.079,82.312 C 84.523,81 82.63,77.216 83.853,73.854 c 0.475,-1.315 1.571,-4.439 9.456,-3.516 11.296,1.047 24.813,3.047 26.829,4.396 l 0.506,0.511 0,31.412 10e-4,0 z"/><g id="g4269" fill="#082827" fill-opacity="1"><rect id="rect4173" width="6.237" height="24.058" x="91.833" y="-33.069" fill="#082827" fill-opacity="1" fill-rule="nonzero" stroke="none" stroke-dasharray="none" stroke-dashoffset="0" stroke-linecap="butt" stroke-linejoin="miter" stroke-miterlimit="4" stroke-opacity="1" stroke-width=".2" clip-rule="nonzero" color="#000" color-interpolation="sRGB" color-interpolation-filters="linearRGB" color-rendering="auto" display="inline" enable-background="accumulate" image-rendering="auto" opacity="1" overflow="visible" rx="3.118" ry="3.42" shape-rendering="auto" text-rendering="auto" visibility="visible" style="isolation:auto;mix-blend-mode:normal;solid-color:#000;solid-opacity:1"/><rect clip-rule="nonzero" style="isolation:auto;mix-blend-mode:normal;solid-color:#000;solid-opacity:1" id="rect4173-7" width="6.237" height="24.058" x="7.445" y="-138.583" fill="#082827" fill-opacity="1" fill-rule="nonzero" stroke="none" stroke-dasharray="none" stroke-dashoffset="0" stroke-linecap="butt" stroke-linejoin="miter" stroke-miterlimit="4" stroke-opacity="1" stroke-width=".2" color="#000" color-interpolation="sRGB" color-interpolation-filters="linearRGB" color-rendering="auto" display="inline" enable-background="accumulate" image-rendering="auto" opacity="1" overflow="visible" rx="3.118" ry="3.42" shape-rendering="auto" text-rendering="auto" transform="matrix(0,1,-1,0,0,0)" visibility="visible"/><rect clip-rule="nonzero" style="isolation:auto;mix-blend-mode:normal;solid-color:#000;solid-opacity:1" id="rect4173-7-5" width="6.237" height="24.058" x="-13.681" y="51.319" fill="#082827" fill-opacity="1" fill-rule="nonzero" stroke="none" stroke-dasharray="none" stroke-dashoffset="0" stroke-linecap="butt" stroke-linejoin="miter" stroke-miterlimit="4" stroke-opacity="1" stroke-width=".2" color="#000" color-interpolation="sRGB" color-interpolation-filters="linearRGB" color-rendering="auto" display="inline" enable-background="accumulate" image-rendering="auto" opacity="1" overflow="visible" rx="3.118" ry="3.42" shape-rendering="auto" text-rendering="auto" transform="matrix(0,-1,1,0,0,0)" visibility="visible"/><rect clip-rule="nonzero" style="isolation:auto;mix-blend-mode:normal;solid-color:#000;solid-opacity:1" id="rect4173-7-5-3" width="6.237" height="24.058" x="56.553" y="30.978" fill="#082827" fill-opacity="1" fill-rule="nonzero" stroke="none" stroke-dasharray="none" stroke-dashoffset="0" stroke-linecap="butt" stroke-linejoin="miter" stroke-miterlimit="4" stroke-opacity="1" stroke-width=".2" color="#000" color-interpolation="sRGB" color-interpolation-filters="linearRGB" color-rendering="auto" display="inline" enable-background="accumulate" image-rendering="auto" opacity="1" overflow="visible" rx="3.118" ry="3.42" shape-rendering="auto" text-rendering="auto" transform="matrix(0.70710678,-0.70710678,0.70710678,0.70710678,0,0)" visibility="visible"/><rect clip-rule="nonzero" style="isolation:auto;mix-blend-mode:normal;solid-color:#000;solid-opacity:1" id="rect4173-7-5-3-5" width="6.237" height="24.058" x="71.491" y="-103.303" fill="#082827" fill-opacity="1" fill-rule="nonzero" stroke="none" stroke-dasharray="none" stroke-dashoffset="0" stroke-linecap="butt" stroke-linejoin="miter" stroke-miterlimit="4" stroke-opacity="1" stroke-width=".2" color="#000" color-interpolation="sRGB" color-interpolation-filters="linearRGB" color-rendering="auto" display="inline" enable-background="accumulate" image-rendering="auto" opacity="1" overflow="visible" rx="3.118" ry="3.42" shape-rendering="auto" text-rendering="auto" transform="matrix(0.70710678,0.70710678,-0.70710678,0.70710678,0,0)" visibility="visible"/></g></g></g></g></g></svg>